<svg viewBox="0 0 200 200" xmlns="http://www.w3.org/2000/svg">
  <!-- Background gradient -->
  <defs>
    <linearGradient id="bgGradient" x1="0%" y1="0%" x2="100%" y2="100%">
      <stop offset="0%" style="stop-color:#7c3aed;stop-opacity:1" />
      <stop offset="100%" style="stop-color:#5b21b6;stop-opacity:1" />
    </linearGradient>
  </defs>
  
  <!-- Circular background -->
  <circle cx="100" cy="100" r="95" fill="url(#bgGradient)"/>
  
  <!-- Decorative border -->
  <circle cx="100" cy="100" r="95" fill="none" stroke="#fff" stroke-width="2" opacity="0.3"/>
  
  <!-- Abaya/Borka silhouette -->
  <g transform="translate(100, 100)">
    <!-- Head -->
    <circle cx="0" cy="-35" r="12" fill="#fff" opacity="0.9"/>
    
    <!-- Hijab/Head covering flowing down -->
    <path d="M -12,-25 Q -25,-20 -28,0 L -28,50 Q -28,55 -23,55 L 23,55 Q 28,55 28,50 L 28,0 Q 25,-20 12,-25" fill="#fff" opacity="0.85"/>
    
    <!-- Main Abaya body -->
    <ellipse cx="0" cy="25" rx="22" ry="38" fill="#fff" opacity="0.8"/>
    
    <!-- Decorative embroidery pattern -->
    <circle cx="-8" cy="5" r="2" fill="#7c3aed" opacity="0.6"/>
    <circle cx="8" cy="5" r="2" fill="#7c3aed" opacity="0.6"/>
    <circle cx="-6" cy="20" r="1.5" fill="#7c3aed" opacity="0.4"/>
    <circle cx="6" cy="20" r="1.5" fill="#7c3aed" opacity="0.4"/>
    <circle cx="0" cy="35" r="1.5" fill="#7c3aed" opacity="0.4"/>
    
    <!-- Left sleeve -->
    <path d="M -22,10 Q -35,15 -38,35" stroke="#fff" stroke-width="3" fill="none" opacity="0.8"/>
    
    <!-- Right sleeve -->
    <path d="M 22,10 Q 35,15 38,35" stroke="#fff" stroke-width="3" fill="none" opacity="0.8"/>
  </g>
</svg>
